<svg width="365" height="506" viewBox="0 0 365 506" fill="none" xmlns="http://www.w3.org/2000/svg">
<path fill-rule="evenodd" clip-rule="evenodd" d="M255.406 137.189L255.406 137.189L255.294 138.044C254.575 143.575 253.376 149.106 252.177 154.636L252.177 154.636L252.176 154.64C249.777 165.704 246.659 176.528 242.341 187.351L240.662 191.44L240.183 192.402L239.943 192.883C239.943 192.983 239.902 193.041 239.853 193.109C239.785 193.206 239.703 193.323 239.703 193.605C239.223 194.807 238.504 196.01 237.304 197.212C236.345 198.415 234.906 199.377 233.467 200.339L233.466 200.339C232.027 201.061 230.348 201.542 228.909 201.782C226.031 202.023 223.632 201.542 221.713 201.061C217.875 199.858 215.237 198.175 212.598 196.25C209.96 194.567 207.802 192.643 205.643 190.719L205.642 190.718C197.172 182.933 190.318 174.685 183.947 165.747C179.155 164.039 175.179 159.932 175.179 159.932L180.652 142.751L175.18 159.691L162.946 152.235L166.544 137.563L180.696 142.614L180.696 142.615L190.29 157.767L190.235 159.696L190.531 159.451C192.45 161.255 194.428 163.059 196.407 164.862C198.386 166.666 200.365 168.47 202.284 170.274C206.361 173.882 210.439 177.008 214.516 180.135L214.517 180.136C215.143 180.554 215.748 180.972 216.345 181.384C217.808 182.395 219.22 183.37 220.754 184.224C222.434 185.277 224.297 185.961 225.701 186.438L226.031 185.667L227.47 182.06C230.828 172.439 233.466 162.337 235.385 151.995C235.901 149.281 236.347 146.499 236.798 143.684L236.798 143.683L236.798 143.682C237.187 141.258 237.58 138.809 238.024 136.361C238.743 131.31 239.463 125.778 239.703 120.967L256.973 121.208C256.746 126.91 256.087 131.964 255.406 137.189ZM226.658 186.724C227.069 186.78 227.18 186.63 226.99 186.63C226.924 186.63 226.803 186.666 226.658 186.724Z" fill="url(#paint0_linear)"/>
<path d="M248.202 99.0094C241.006 100.934 235.729 130.998 235.729 130.998L255.877 144.708C255.877 144.708 275.067 114.403 269.55 106.225C263.553 97.8068 258.756 96.1231 248.202 99.0094Z" fill="#FFEDBA"/>
<path opacity="0.3" d="M248.682 105.744L243.165 136.049L254.439 143.746L248.682 105.744Z" fill="#ED6B57"/>
<path d="M290.045 479.873H266.341L265.06 439.588H288.443L290.045 479.873Z" fill="#FFC3BD"/>
<path d="M266.088 477.695H290.031C290.897 477.695 291.474 478.292 291.762 479.186L294.358 498.862C294.647 500.949 292.916 502.738 290.897 502.738C282.531 502.738 278.492 502.142 268.108 502.142C261.761 502.142 248.203 502.738 239.261 502.738C230.607 502.738 229.741 493.496 233.491 492.9C250.223 489.322 256.857 483.956 262.338 479.186C263.492 478.292 264.934 477.695 266.088 477.695Z" fill="#14365B"/>
<path d="M265.06 440.676L265.689 455.919H288.958L288.015 440.676H265.06Z" fill="#F29994"/>
<path d="M262.886 449.683C262.886 449.683 248.877 325.334 247.678 269.052C247.289 250.821 249.739 225.501 252.023 208.217H290.044L287.541 269.052C285.382 324.372 290.044 449.683 290.044 449.683H262.886Z" fill="url(#paint1_linear)"/>
<path d="M253.135 98.4905C253.135 98.4905 250.079 108.202 249.333 116.712C248.511 126.095 239.531 142.889 244.74 152.688C256.912 168.476 250.847 192.609 253.135 206.833C281.679 206.833 311.183 206.833 325.095 206.833C323.895 177.49 323.895 159.451 337.807 99.0803C337.807 99.0803 322.696 95.713 307.345 94.9915C295.351 94.5104 285.277 94.0294 274.723 94.9915C260.571 96.1941 253.135 98.4905 253.135 98.4905Z" fill="#FFEDBA"/>
<path d="M303.987 57.9513C301.828 68.5342 299.909 87.7758 307.105 94.7509C307.105 94.7509 304.227 105.334 284.797 105.334C263.21 105.334 274.483 94.7509 274.483 94.7509C286.237 91.8646 285.997 83.2059 283.838 75.0282L303.987 57.9513Z" fill="url(#paint2_linear)"/>
<path d="M295.831 64.9264L284.078 75.0281C284.558 76.9523 285.037 78.8765 285.037 80.8007C289.595 80.0791 295.592 75.2687 296.071 70.4583C296.311 68.2936 296.311 66.129 295.831 64.9264Z" fill="#F29994"/>
<path d="M267.413 48.1497C259.716 36.6033 262.144 25.9275 267.413 19.971H288.032C288.719 29.1348 290.094 48.4246 290.094 52.2734C290.094 56.1222 309.796 49.5242 307.963 53.6479C303.381 52.7316 275.111 59.696 267.413 48.1497Z" fill="#0F264C"/>
<path d="M315.021 38.7015C310.943 55.7784 309.504 63.2345 299.19 70.4501C283.599 81.514 263.69 72.6148 262.491 54.5757C261.531 38.4609 268.487 12.9657 286.477 9.11741C304.707 5.5096 319.339 21.6245 315.021 38.7015Z" fill="url(#paint3_linear)"/>
<path d="M294.025 451.564H260.067L257.455 440.728L295.476 439.588L294.025 451.564Z" fill="#4B2A2A"/>
<path d="M284.079 240.747C276.105 256.738 278.976 281.966 280.268 303.487C281.853 329.873 283.282 352.329 286.717 365.576C289.835 329.258 295.352 284.762 299.43 252.291C297.031 233.771 292.234 224.391 284.079 240.747Z" fill="#EE4D47" fill-opacity="0.29" style="mix-blend-mode:multiply"/>
<path d="M356.853 445.167L334.041 352.83V262.124L327.318 207.265H286.581C281.801 237.682 292.399 320.965 300.908 364.237L327.318 445.167H356.853Z" fill="url(#paint4_linear)"/>
<path d="M340.015 478.299L333.497 452.228H356.31L360.112 478.299H340.015Z" fill="#FFC3BD"/>
<path d="M331.383 489.588L339.227 477.756H359.957C362.519 479.291 363.684 488.895 364.442 495.341C364.737 497.851 363.175 500.254 360.746 500.951L343.149 506H317.691C315.633 506 313.976 504.311 314.015 502.254C314.015 494.904 326.126 490.201 331.383 489.588Z" fill="#14365B"/>
<path fill-rule="evenodd" clip-rule="evenodd" d="M357.166 458.097L356.31 452.228H333.497L334.964 458.097H357.166Z" fill="#F29994"/>
<path d="M361.376 454.831H327.419L324.807 443.995L362.828 442.854L361.376 454.831Z" fill="#4B2A2A"/>
<circle r="20.6185" transform="matrix(1 0 0 -1 325.146 33.0294)" fill="#0F264C"/>
<path d="M287.964 38.6943C288.217 37.2587 287.683 35.9635 286.77 35.8013C285.857 35.6392 284.911 36.6715 284.657 38.1071C284.404 39.5427 284.938 40.8381 285.851 41.0002C286.765 41.1624 287.71 40.1299 287.964 38.6943Z" fill="#0F264C"/>
<path d="M272.084 36.0573C271.844 37.4971 270.885 38.457 269.925 38.217C268.966 37.977 268.486 36.7772 268.726 35.3373C268.966 33.8975 269.926 32.9376 270.885 33.1776C271.844 33.4176 272.324 34.6174 272.084 36.0573Z" fill="#0F264C"/>
<path d="M271.365 33.4143L268.247 31.7345C268.007 31.7345 269.446 34.6142 271.365 33.4143Z" fill="#0F264C"/>
<path d="M275.922 39.1908C275.922 39.1908 272.564 44.7227 269.206 47.3684C270.645 49.533 274.003 49.2926 274.003 49.2926L275.922 39.1908Z" fill="#ED847E"/>
<path d="M282.124 57.4055C281.065 57.4055 280.006 57.4056 278.594 57.0608C278.241 57.0608 277.888 56.7159 278.241 56.371C278.241 56.0261 278.594 55.6813 278.947 56.0261C288.124 57.7504 293.419 52.2326 293.419 52.2326C293.772 51.8878 294.125 51.8878 294.125 52.2326C294.478 52.5775 294.478 52.9224 294.125 52.9224C294.125 52.9224 289.889 57.4055 282.124 57.4055Z" fill="#0F264C"/>
<path d="M324.39 22.3554C332.384 41.4111 315.964 51.157 306.754 53.6479L315.572 36.367L313.808 27.0259C305.775 22.044 291.823 11.8934 300.288 11.1461C310.869 10.212 321.45 15.3496 324.39 22.3554Z" fill="#D3D86C"/>
<path d="M287.436 7.92302C279.52 12.4929 298.949 55.546 313.341 49.533C327.733 43.52 322.936 19.468 315.98 13.455C308.784 7.20151 298.469 1.42899 287.436 7.92302Z" fill="#0F264C"/>
<path d="M321.709 22.0329C331.056 50.0741 311.858 64.4154 301.091 68.0809L311.4 42.6514L309.338 28.9057C299.945 21.5747 283.634 6.63774 293.53 5.53809C305.902 4.16352 318.273 11.7236 321.709 22.0329Z" fill="#0F264C"/>
<path d="M282.879 5.75847C282.879 5.75847 273.284 7.20158 267.048 18.987C260.571 31.013 297.271 7.4421 291.994 5.75847C286.956 4.07484 282.879 5.75847 282.879 5.75847Z" fill="#0F264C"/>
<path d="M315.741 51.6977C314.301 55.065 311.663 57.4702 308.785 58.6728C304.707 60.3564 302.068 56.7486 302.788 52.4192C303.508 48.5709 306.386 43.2795 310.943 43.2795C315.261 43.2795 317.42 47.6089 315.741 51.6977Z" fill="url(#paint5_linear)"/>
<path fill-rule="evenodd" clip-rule="evenodd" d="M345.482 117.841C349.56 127.462 352.678 137.083 355.557 146.944C358.435 156.805 360.834 166.907 362.033 177.49C362.273 180.136 362.513 182.781 362.753 185.668V187.832C362.753 187.867 362.757 187.935 362.764 188.033C362.806 188.622 362.924 190.272 362.513 191.921C362.273 192.883 361.793 194.086 361.074 195.048C360.354 196.25 359.395 197.212 358.435 197.934C356.276 199.377 354.357 199.858 352.918 200.099C351.924 200.265 351.045 200.201 350.28 200.146L350.279 200.146C349.937 200.122 349.617 200.099 349.32 200.099C348.87 199.986 348.42 199.926 347.995 199.869H347.995C347.514 199.805 347.064 199.745 346.682 199.618C345.003 199.137 343.563 198.656 342.364 198.175C339.726 196.972 337.327 195.769 334.928 194.567C325.813 189.275 317.658 183.262 309.983 176.528L310.104 176.348C306.843 174.685 304.266 171.576 302.834 169.554L291.753 157.286L298.949 143.817L311.182 152.235L311.182 152.235L317.037 170.085L318.26 170.7L318.26 170.7C325.864 174.526 333.606 178.421 341.165 181.579C342.672 182.251 344.18 182.805 345.606 183.242C345.467 182.35 345.337 181.465 345.243 180.617C344.523 176.048 343.324 171.479 342.125 166.91L342.124 166.907C341.525 164.622 340.865 162.277 340.205 159.932C339.546 157.587 338.886 155.242 338.286 152.957C335.408 143.817 332.05 134.437 328.692 125.538L345.482 117.841Z" fill="#FFC3BD"/>
<path d="M292.473 29.5604C292.233 29.5604 291.993 29.5604 291.753 29.3204C289.115 26.6807 286.236 27.1607 285.997 27.1607C285.517 27.1607 285.037 26.9207 285.037 26.4408C285.037 25.9608 285.277 25.4809 285.757 25.4809C285.997 25.4809 289.834 24.7609 292.953 28.1205C293.192 28.3605 293.192 29.0804 292.953 29.3204C292.713 29.5604 292.713 29.5604 292.473 29.5604Z" fill="#0F264C"/>
<path d="M266.328 27.3956C266.088 27.3956 265.848 27.3955 265.848 27.1556C265.608 26.9156 265.608 26.1957 265.848 25.9557C268.966 22.5962 272.804 23.3161 273.044 23.3161C273.524 23.3161 273.763 23.7961 273.763 24.276C273.763 24.756 273.284 24.9959 272.804 24.9959C272.564 24.9959 269.686 24.5159 267.047 27.1556C266.807 27.3955 266.567 27.3956 266.328 27.3956Z" fill="#0F264C"/>
<path d="M337.807 98.8397C345.003 101.004 353.639 126.018 353.639 126.018L325.574 145.982C325.574 145.982 315.26 125.297 318.378 115.917C321.736 106.296 329.652 96.4345 337.807 98.8397Z" fill="#FFEDBA"/>
<path d="M254.432 479.873C251.457 479.873 248.481 479.438 246.781 477.697C245.931 476.827 245.506 475.521 245.506 473.78C245.506 472.91 245.931 472.04 246.781 471.604C250.607 469.428 262.934 475.956 264.634 476.827C265.06 476.827 265.059 477.262 265.059 477.697C265.059 478.132 264.634 478.132 264.634 478.132C261.659 479.438 257.833 479.873 254.432 479.873ZM248.906 473.345C248.481 473.345 248.056 473.345 247.631 473.78C247.206 473.78 247.206 474.216 247.206 474.651C247.206 475.521 247.206 476.391 248.056 477.262C249.757 479.003 255.283 479.438 262.084 478.132C257.408 475.521 251.882 473.345 248.906 473.345Z" fill="#9FC6FF"/>
<path d="M264.206 478.784C259.945 477.201 252.701 470.866 253.127 467.698C253.127 466.906 253.98 466.115 256.11 465.719C257.815 465.719 259.093 466.115 260.371 466.906C264.207 470.074 265.059 477.992 265.059 477.992C265.059 478.388 265.059 478.388 264.633 478.784H264.206ZM256.536 466.906H256.11C254.832 466.906 254.832 467.698 254.832 467.698C254.406 469.678 259.519 474.825 263.354 476.805C262.928 474.429 262.076 469.678 259.519 467.698C258.667 467.302 257.815 466.906 256.536 466.906Z" fill="#9FC6FF"/>
<path d="M334.406 483.045C332.074 481.328 329.992 479.269 329.66 476.923C329.494 475.751 329.911 474.482 330.911 473.118C331.411 472.436 332.244 471.999 333.161 472.148C337.409 472.651 343.319 484.883 344.152 486.546C344.485 486.791 344.235 487.133 343.985 487.474C343.735 487.815 343.402 487.569 343.402 487.569C340.32 486.875 337.071 485.008 334.406 483.045ZM333.826 474.74C333.493 474.494 333.16 474.249 332.577 474.344C332.244 474.099 331.993 474.44 331.743 474.781C331.243 475.463 330.743 476.145 330.91 477.318C331.242 479.664 335.323 483.195 341.403 486.097C339.239 481.352 336.158 476.457 333.826 474.74Z" fill="#9FC6FF"/>
<path d="M342.692 487.834C340.262 484.133 338.225 474.987 340.379 472.751C340.834 472.13 341.957 472.001 343.854 472.921C345.19 473.905 345.964 474.953 346.511 476.311C347.697 481.007 343.815 487.705 343.815 487.705C343.587 488.015 343.587 488.016 343.026 488.08L342.692 487.834ZM343.505 474.098L343.171 473.852C342.169 473.114 341.714 473.734 341.714 473.734C340.243 475.04 341.293 482.025 343.161 485.79C344.192 483.683 346.254 479.467 345.388 476.44C344.948 475.638 344.507 474.836 343.505 474.098Z" fill="#9FC6FF"/>
<path d="M326.054 202.504L327.973 208.998C328.213 209.479 327.733 209.96 326.773 209.96H252.655C251.936 209.96 251.456 209.719 251.456 209.238L250.736 202.744C250.736 202.263 251.216 202.023 251.936 202.023H324.854C325.574 201.782 326.054 202.023 326.054 202.504Z" fill="#F18069"/>
<path d="M316.459 210.682H318.378C318.858 210.682 319.098 210.441 319.098 210.201L318.138 201.782C318.138 201.542 317.659 201.301 317.419 201.301H315.5C315.02 201.301 314.78 201.542 314.78 201.782L315.74 210.201C315.74 210.441 315.98 210.682 316.459 210.682Z" fill="#6A2828"/>
<path d="M258.173 210.682H260.092C260.572 210.682 260.812 210.441 260.812 210.201L259.852 201.782C259.852 201.542 259.372 201.301 259.133 201.301H257.214C256.734 201.301 256.494 201.542 256.494 201.782L257.454 210.201C257.454 210.441 257.933 210.682 258.173 210.682Z" fill="#6A2828"/>
<path d="M287.196 210.682H289.115C289.594 210.682 289.834 210.441 289.834 210.201L288.875 201.782C288.875 201.542 288.395 201.301 288.155 201.301H286.236C285.756 201.301 285.517 201.542 285.517 201.782L286.476 210.201C286.476 210.441 286.956 210.682 287.196 210.682Z" fill="#6A2828"/>
<path d="M287.196 36.0601L284.078 34.3802C284.078 34.6202 285.277 37.5 287.196 36.0601Z" fill="#0F264C"/>
<path d="M119.379 34.2029H101.274L98.8223 23.2346C98.8223 23.2346 105.989 27.395 107.686 24.5584C109.383 21.7218 109.006 22.8564 110.704 23.2346C112.401 23.6128 112.401 21.3436 114.475 22.6673C116.739 24.1802 120.133 31.3662 119.379 34.2029Z" fill="#6B1912"/>
<path d="M100.709 484.846L122.963 482.955L121.831 455.346L99.3887 457.426L100.709 484.846Z" fill="#D88D6C"/>
<path d="M142.199 481.055C142.199 481.055 127.489 474.247 125.037 469.33C125.037 469.33 120.699 453.445 114.099 461.766C114.099 461.766 107.309 467.25 97.6911 462.901L96.5596 492.969L163.133 492.78C161.435 488.241 159.927 483.135 142.199 481.055Z" fill="url(#paint6_linear)"/>
<path d="M96.5598 493.167L96.1826 497.884L163.321 497.695C163.321 495.808 163.887 494.865 162.944 492.978L96.5598 493.167Z" fill="#C73E39"/>
<path d="M3.20605 481.064L25.4601 484.846L31.3065 457.993L9.24107 454.211L3.20605 481.064Z" fill="#D88D6C"/>
<path d="M46.0161 481.064C46.0161 481.064 31.3059 474.256 28.8542 469.34C28.8542 469.34 32.2489 456.858 24.328 463.099C24.328 463.099 10.7494 468.205 5.09163 461.964L0.56543 493.167L67.1384 492.978C65.0639 488.25 63.5552 483.144 46.0161 481.064Z" fill="url(#paint7_linear)"/>
<path d="M0.37715 493.167L0 497.884L67.1388 497.695C67.1388 495.808 67.7046 494.865 66.7617 492.978L0.37715 493.167Z" fill="#C73E39"/>
<path d="M126.734 224.634C126.734 224.634 130.695 338.288 127.111 467.449C127.111 467.449 116.362 477.66 95.9936 470.852C95.9936 470.852 96.1821 327.131 90.7129 270.02C90.7129 270.02 65.0644 378.568 32.6265 472.554C32.6265 472.554 10.9383 476.715 3.20605 464.423C3.20605 464.423 46.9595 312.191 53.3717 224.634H126.734Z" fill="url(#paint8_linear)"/>
<path d="M126.734 224.634H53.3714C52.8056 231.253 52.2398 238.25 51.2969 245.436C95.0503 245.625 118.247 234.468 126.922 229.362C126.922 226.147 126.734 224.634 126.734 224.634Z" fill="#402B2B" fill-opacity="0.45" style="mix-blend-mode:multiply"/>
<path d="M166.716 145.587C146.537 109.846 130.695 97.743 130.695 97.743C122.02 102.66 128.62 136.321 128.62 136.321C134.09 147.1 137.861 156.745 145.971 166.2L166.716 145.587Z" fill="#D1402C"/>
<path d="M130.694 97.7431C130.694 97.7431 129.751 119.491 126.923 224.067C126.923 224.067 101.274 237.115 50.1654 228.038C50.1654 228.038 49.9768 196.646 42.9989 168.848C42.9989 168.848 29.986 116.465 36.5868 101.147C36.5868 101.147 78.2657 75.2394 130.694 97.7431Z" fill="url(#paint9_linear)"/>
<path d="M91.0901 77.0158L91.4673 90.5563C91.4673 90.5563 88.2612 95.284 80.5289 95.8513C72.7967 96.2295 69.0249 91.88 69.0249 91.88L68.2705 71.7208C77.8887 75.8812 87.3183 77.5831 91.0901 77.0158Z" fill="url(#paint10_linear)"/>
<path d="M90.336 71.457L91.0904 86.3965C87.3185 86.9638 77.8889 85.2618 68.4593 81.1015L67.8936 71.457H90.336Z" fill="url(#paint11_linear)" style="mix-blend-mode:multiply"/>
<path d="M39.2275 130.648C39.2275 130.648 50.3544 155.799 54.3148 167.146C58.2753 178.303 58.2753 222.743 79.0204 231.253C79.0204 231.253 56.9552 229.929 49.9772 228.038C49.9772 228.038 49.6 194.566 42.8107 168.848C42.8107 168.848 38.0959 141.805 36.21 129.513L39.2275 130.648Z" fill="#EE4D47" fill-opacity="0.29" style="mix-blend-mode:multiply"/>
<path d="M53.9375 38.5523C54.3147 38.7414 54.6919 44.7928 54.6919 44.7928L56.2006 57.4631L63.1786 62.9472L67.139 64.6491C67.139 64.6491 72.9854 62.1907 72.231 59.9214C71.4767 57.8412 67.7048 27.9623 66.9504 27.9623C66.1961 27.9623 60.1611 32.3118 60.1611 32.3118L53.9375 38.5523Z" fill="#402B2B"/>
<path d="M109.195 27.2058C110.892 27.2058 108.252 48.0078 108.252 48.0078L105.235 39.687L103.16 29.6642L109.195 27.2058Z" fill="#402B2B"/>
<path d="M106.366 31.3662L109.572 58.0304C109.572 58.0304 110.704 80.5343 92.2219 81.8581C73.7399 82.9927 61.1042 64.6492 61.1042 64.6492C61.1042 64.6492 58.8411 67.2967 56.3894 62.7581C54.1263 58.2196 55.635 52.1681 58.8411 51.6008C62.2357 51.2226 63.7445 53.1136 64.1217 55.9502C64.4989 58.7869 64.8761 60.8671 64.8761 60.8671L67.7049 60.4889L65.6304 38.5524C65.6304 38.5524 69.968 30.0425 74.8714 28.3405C79.7748 26.6386 84.1124 33.4464 84.1124 33.4464C84.1124 33.4464 88.6386 34.392 92.9763 33.4464C97.3139 32.5009 100.143 31.3662 100.143 31.3662C100.143 31.3662 102.783 32.1227 106.366 31.3662Z" fill="url(#paint12_linear)"/>
<path d="M92.976 71.6462C86.7525 72.0244 85.8096 64.8383 85.8096 64.8383C85.8096 64.8383 100.142 63.1363 100.52 62.9472C100.52 62.9472 101.651 71.0789 92.976 71.6462Z" fill="#893D43"/>
<path d="M86.3755 67.098C85.8097 65.7773 85.6211 64.8339 85.6211 64.8339C85.6211 64.8339 99.9541 63.1359 100.331 62.9472C100.331 62.9472 100.52 63.8905 100.331 65.3999L86.3755 67.098Z" fill="#FFFEFF"/>
<path d="M86.9419 24.5482V5.25919C75.4378 5.82651 63.5565 8.09577 57.7101 15.2819C50.7322 23.7917 54.6927 43.4589 54.6927 43.4589C54.6927 43.4589 63.1793 42.5134 64.688 39.6767C66.1968 36.8401 80.5298 32.8688 91.4682 33.4362C102.407 34.0035 107.687 32.8689 113.156 28.1412C114.288 27.1957 115.231 25.8719 115.985 24.359H86.9419V24.5482Z" fill="#402B2B"/>
<path d="M53.3716 36.283C53.3716 36.283 61.481 33.6355 75.0597 32.5008C97.8794 22.8563 107.686 24.5583 107.686 24.5583C107.686 24.5583 107.498 17.1831 105.423 12.0772C103.349 6.97135 89.3927 -0.214719 77.7 0.919925C66.0073 2.05457 53.9373 10.7535 52.0514 19.0742C50.5427 25.5038 53.3716 36.283 53.3716 36.283Z" fill="url(#paint13_linear)"/>
<path d="M67.1387 33.4463C69.5904 21.7216 87.1295 15.8593 99.5766 16.0484C111.835 16.2375 120.51 26.4493 121.83 33.4463C122.396 36.2829 120.133 36.6612 119.379 34.2027C118.813 32.5008 117.681 24.3692 106.366 25.3147C95.0504 26.2603 95.6161 36.4721 89.9584 37.4176C84.6778 38.3631 78.6428 34.581 67.1387 33.4463Z" fill="url(#paint14_linear)"/>
<path d="M105.046 36.0905V34.7698C104.48 34.7698 100.143 34.2037 94.8623 35.3358L95.0509 37.4112C99.3885 36.0905 105.046 36.0905 105.046 36.0905Z" fill="#402B2B"/>
<path d="M73.1743 40.8075C76.5689 38.9206 82.9811 37.9773 82.9811 37.7886L82.2267 35.9018C82.0381 35.9018 76.1918 37.0338 72.4199 39.4867L73.1743 40.8075Z" fill="#402B2B"/>
<path d="M92.0332 47.2513C92.0332 47.2513 92.599 51.2226 94.1077 52.3572C95.6165 53.4918 98.2568 54.4374 98.634 55.3829C99.0112 56.1393 98.2568 57.6522 96.5594 58.2195C94.8621 58.7868 94.6735 59.3542 94.6735 59.3542C94.6735 59.3542 98.0682 59.7324 99.7656 57.6522C101.463 55.572 99.577 53.8701 97.8796 52.9246C96.1823 51.979 95.4279 51.6008 94.6735 51.0335C93.7305 50.4662 92.0332 47.2513 92.0332 47.2513Z" fill="#D87C60"/>
<path d="M83.9236 49.3314C83.9236 51.2225 82.6035 52.9245 80.9062 52.9245C79.2088 52.9245 77.8887 51.4116 77.8887 49.3314C77.8887 47.4404 79.2088 45.7384 80.9062 45.7384C82.6035 45.7384 83.9236 47.2512 83.9236 49.3314Z" fill="#402B2B"/>
<path d="M104.669 46.8731C104.669 48.7642 103.349 50.4662 101.651 50.4662C99.9539 50.4662 98.6338 48.9533 98.6338 46.8731C98.6338 44.982 99.9539 43.2801 101.651 43.2801C103.349 43.4692 104.669 44.982 104.669 46.8731Z" fill="#402B2B"/>
<path d="M197.079 97.5538H80.5293V187.758H197.079V97.5538Z" fill="#8C5E5E"/>
<path d="M197.267 97.5538H154.834V187.758H197.267V97.5538Z" fill="#694646"/>
<path d="M182.746 97.5538H171.808V110.035H182.746V97.5538Z" fill="#A3774A"/>
<path d="M120.134 97.5538H109.195V110.035H120.134V97.5538Z" fill="#A3774A"/>
<path d="M197.268 163.931C197.268 163.931 191.233 167.902 189.536 169.604C187.838 171.306 184.821 187.569 187.838 189.271C190.856 190.973 196.702 189.271 198.588 189.649C200.663 190.027 206.697 186.245 206.697 183.22C206.697 180.194 202.926 160.149 201.983 159.77C201.04 159.392 197.268 156.934 197.268 156.934V163.931Z" fill="#F4A984"/>
<path d="M121.453 162.607H85.0547V180.383H121.453V162.607Z" fill="white"/>
<path fill-rule="evenodd" clip-rule="evenodd" d="M49.2225 185.678C35.4552 165.633 33.5693 104.929 33.5693 104.929C52.4286 107.388 65.0643 132.728 65.0643 132.917L67.8932 169.226L116.024 176.955L118.625 174.521C118.625 174.521 129.752 168.848 138.804 169.793C138.804 169.793 142.953 170.55 142.01 173.008C141.633 174.332 142.388 175.183 143.142 176.034C143.896 176.885 144.651 177.736 144.274 179.059C143.955 180.176 144.241 181.024 144.522 181.858C144.908 183.001 145.284 184.118 144.085 185.867C144.085 185.867 145.594 188.137 143.896 190.217C143.819 190.311 143.738 190.411 143.653 190.515C141.862 192.715 138.367 197.007 137.107 196.646C136.633 196.511 135.529 196.326 134.289 196.119C132.074 195.75 129.428 195.308 129.186 194.944C128.809 194.377 128.432 193.242 130.318 192.108C130.318 192.108 128.243 192.675 125.603 192.297C122.963 192.108 119.191 190.028 119.191 190.028L118.49 189.442C65.5914 193.793 49.2225 185.678 49.2225 185.678Z" fill="url(#paint15_linear)"/>
<path d="M70.3449 160.527L65.0643 132.728C65.0643 132.728 55.4461 103.605 36.5869 101.147C36.5869 101.147 23.0082 109.657 39.7929 167.524L70.3449 160.527Z" fill="url(#paint16_linear)"/>
<defs>
<linearGradient id="paint0_linear" x1="261.207" y1="192.044" x2="255.849" y2="136.956" gradientUnits="userSpaceOnUse">
<stop stop-color="#FFB3B6"/>
<stop offset="1" stop-color="#FFC8C1"/>
</linearGradient>
<linearGradient id="paint1_linear" x1="266.717" y1="155.676" x2="266.717" y2="456.22" gradientUnits="userSpaceOnUse">
<stop stop-color="#F4A984"/>
<stop offset="1" stop-color="#EE4D47"/>
</linearGradient>
<linearGradient id="paint2_linear" x1="292.217" y1="99.3369" x2="292.438" y2="35.6086" gradientUnits="userSpaceOnUse">
<stop stop-color="#FFB3B6"/>
<stop offset="1" stop-color="#FFC8C1"/>
</linearGradient>
<linearGradient id="paint3_linear" x1="318.187" y1="67.2259" x2="311.834" y2="22.261" gradientUnits="userSpaceOnUse">
<stop stop-color="#FFB3B6"/>
<stop offset="1" stop-color="#FFC8C1"/>
</linearGradient>
<linearGradient id="paint4_linear" x1="322.26" y1="156.09" x2="322.26" y2="448.818" gradientUnits="userSpaceOnUse">
<stop stop-color="#F4A984"/>
<stop offset="1" stop-color="#EE4D47"/>
</linearGradient>
<linearGradient id="paint5_linear" x1="316.925" y1="57.1784" x2="315.523" y2="46.4878" gradientUnits="userSpaceOnUse">
<stop stop-color="#FFB3B6"/>
<stop offset="1" stop-color="#FFC8C1"/>
</linearGradient>
<linearGradient id="paint6_linear" x1="129.846" y1="465.165" x2="129.846" y2="493.889" gradientUnits="userSpaceOnUse">
<stop stop-color="#F4A984"/>
<stop offset="1" stop-color="#EE4D47"/>
</linearGradient>
<linearGradient id="paint7_linear" x1="33.8519" y1="454.831" x2="33.8519" y2="494.038" gradientUnits="userSpaceOnUse">
<stop stop-color="#F4A984"/>
<stop offset="1" stop-color="#EE4D47"/>
</linearGradient>
<linearGradient id="paint8_linear" x1="65.9088" y1="154.321" x2="65.9088" y2="473.232" gradientUnits="userSpaceOnUse">
<stop stop-color="#822626"/>
<stop offset="0.943497" stop-color="#402B2B"/>
</linearGradient>
<linearGradient id="paint9_linear" x1="82.7066" y1="55.5232" x2="82.7066" y2="235.157" gradientUnits="userSpaceOnUse">
<stop stop-color="#F4A984"/>
<stop offset="1" stop-color="#EE4D47"/>
</linearGradient>
<linearGradient id="paint10_linear" x1="72.1405" y1="89.5811" x2="91.2391" y2="97.7992" gradientUnits="userSpaceOnUse">
<stop stop-color="#FFB3B6"/>
<stop offset="1" stop-color="#FFC8C1"/>
</linearGradient>
<linearGradient id="paint11_linear" x1="71.7636" y1="80.0932" x2="90.9696" y2="88.2082" gradientUnits="userSpaceOnUse">
<stop stop-color="#FFB3B6" stop-opacity="0.31"/>
<stop offset="1" stop-color="#FFC8C1"/>
</linearGradient>
<linearGradient id="paint12_linear" x1="112.03" y1="75.3833" x2="107.93" y2="38.8239" gradientUnits="userSpaceOnUse">
<stop stop-color="#FFB3B6"/>
<stop offset="1" stop-color="#FFC8C1"/>
</linearGradient>
<linearGradient id="paint13_linear" x1="79.6473" y1="-18.2536" x2="79.6473" y2="36.7307" gradientUnits="userSpaceOnUse">
<stop stop-color="#F4A984"/>
<stop offset="1" stop-color="#EE4D47"/>
</linearGradient>
<linearGradient id="paint14_linear" x1="78.2142" y1="10.5995" x2="78.2142" y2="67.7616" gradientUnits="userSpaceOnUse">
<stop stop-color="#F4A984"/>
<stop offset="1" stop-color="#EE4D47"/>
</linearGradient>
<linearGradient id="paint15_linear" x1="52.1428" y1="157.588" x2="149.956" y2="190.118" gradientUnits="userSpaceOnUse">
<stop stop-color="#FFB3B6"/>
<stop offset="1" stop-color="#FFC8C1"/>
</linearGradient>
<linearGradient id="paint16_linear" x1="50.8726" y1="81.9161" x2="50.8726" y2="149.966" gradientUnits="userSpaceOnUse">
<stop stop-color="#F4A984"/>
<stop offset="1" stop-color="#EE4D47"/>
</linearGradient>
</defs>
</svg>
