<svg width="600" height="397" viewBox="0 0 600 397" fill="none" xmlns="http://www.w3.org/2000/svg">
<path d="M20.5576 329.057C20.5576 365.963 41.7634 395.781 67.8441 395.781H115.131C141.211 395.781 162.173 365.718 162.173 329.057C162.173 292.151 140.968 262.333 114.887 262.333C114.399 262.333 114.156 262.333 113.668 262.333H67.8441C41.5197 262.333 20.5576 292.395 20.5576 329.057Z" fill="#442B2B"/>
<path d="M391.05 328.323C391.05 365.23 412.256 395.048 438.336 395.048H485.623C511.703 395.048 532.666 364.985 532.666 328.323C532.666 291.417 511.46 261.599 485.379 261.599C484.892 261.599 484.648 261.599 484.16 261.599H438.336C412.012 261.599 391.05 291.417 391.05 328.323Z" fill="#402B2B"/>
<path d="M17.3877 322.702L207.752 322.213L185.815 309.259L41.7622 309.503L17.3877 322.702Z" fill="#442B2B"/>
<path d="M-162.252 213.939L-162.008 336.389L-7.47397 336.144L41.7625 309.504L185.816 309.259L230.177 335.656L544.608 334.922C549.727 334.922 553.87 330.767 553.87 325.635L553.627 212.473L-162.252 213.939Z" fill="#822626"/>
<path d="M174.604 241.802L421.274 241.313L420.786 17.1882C420.786 8.14498 413.474 0.812622 404.212 0.812622L173.873 1.30147L174.604 241.802Z" fill="#EF5F53"/>
<path d="M-210.025 242.778L174.36 242.045L173.873 1.54425L-194.182 2.27745C-203.2 2.27745 -210.513 9.60975 -210.513 18.8974L-210.025 242.778Z" fill="#F39476"/>
<path d="M359.851 328.323C359.851 365.23 338.889 395.048 312.808 395.048H265.765V372.562C248.459 372.562 234.322 352.765 234.322 328.323C234.322 303.882 248.216 284.085 265.522 284.085V261.599H312.564C338.645 261.844 359.607 291.662 359.851 328.323Z" fill="#402B2B"/>
<path d="M226.766 328.812C226.766 359.119 244.072 383.56 265.521 383.316C286.971 383.316 304.033 358.875 304.033 328.568C304.033 298.26 286.727 273.819 265.277 274.064C244.072 274.064 226.766 298.505 226.766 328.812Z" fill="#4B2A2A"/>
<path opacity="0.32" d="M265.521 364.74C279.658 364.74 290.87 348.609 290.87 328.568C290.87 308.526 279.414 292.639 265.277 292.639C251.14 292.639 239.928 308.77 239.928 328.812C239.928 348.854 251.384 364.74 265.521 364.74ZM265.521 307.304C273.808 307.304 280.633 316.836 280.633 328.568C280.633 340.299 273.808 350.076 265.521 350.076C257.234 350.076 250.409 340.544 250.409 328.812C250.409 316.836 256.99 307.304 265.521 307.304Z" fill="#E14841"/>
<path d="M265.521 395.292C291.602 395.292 312.564 365.229 312.564 328.568C312.564 291.906 291.358 261.843 265.277 261.843C239.196 261.843 218.234 291.906 218.234 328.568C218.234 365.229 239.684 395.536 265.521 395.292ZM265.277 274.064C286.727 274.064 304.033 298.505 304.033 328.568C304.033 358.874 286.97 383.316 265.521 383.316C244.071 383.316 226.765 358.874 226.765 328.812C226.765 298.505 244.071 274.064 265.277 274.064Z" fill="#402B2B"/>
<path opacity="0.32" d="M258.94 328.567C258.94 323.435 261.865 319.524 265.278 319.524C268.69 319.524 271.615 323.679 271.859 328.567C271.859 333.7 268.934 337.61 265.522 337.61C261.865 337.855 258.94 333.7 258.94 328.567Z" fill="#E14841"/>
<path d="M584.584 145.748C584.584 146.726 585.315 147.459 586.046 147.703C587.996 148.192 595.308 148.192 597.502 147.459C598.477 147.215 599.452 146.481 599.452 145.259C600.183 125.707 600.183 106.643 599.452 88.5563C599.452 87.3343 598.477 86.6011 597.502 86.3567C595.065 85.6234 586.534 85.1346 583.852 86.1122C582.877 86.3566 582.146 87.3343 582.146 88.312C581.659 106.887 582.39 125.951 584.584 145.748Z" fill="#CD2827"/>
<path d="M572.64 163.101C572.883 163.101 573.127 163.102 573.615 162.857L590.189 154.547C594.089 152.592 596.527 148.681 596.527 144.282L596.283 82.9347C596.283 80.4906 594.333 78.5353 591.895 78.5353H546.315C545.096 78.5353 544.365 79.513 544.365 80.4906C544.365 81.7127 545.34 82.4459 546.315 82.4459H591.895C592.139 82.4459 592.139 82.6903 592.139 82.6903L592.383 144.037C592.383 146.97 590.677 149.414 588.239 150.637L571.665 158.947C570.69 159.435 570.202 160.657 570.69 161.635C571.177 162.857 571.908 163.101 572.64 163.101Z" fill="#822626"/>
<path d="M207.753 241.313C207.753 241.313 214.091 241.313 223.841 241.313H262.596C291.602 241.313 298.427 255.733 316.22 291.173L372.525 290.928C372.525 290.928 372.525 286.773 372.525 279.685L587.508 279.196C588.483 261.354 590.433 225.182 590.433 190.964C590.433 189.742 590.433 188.764 590.433 187.542C590.433 177.766 588.727 167.012 585.802 156.258C574.346 114.219 545.34 69.492 533.397 53.1165C529.497 47.7395 526.084 43.0957 523.159 38.9407C514.872 27.9422 509.266 22.3208 498.785 22.3208L238.222 23.054C232.859 23.054 227.984 26.7202 226.522 31.8528C204.097 114.464 207.51 177.277 207.753 241.313ZM427.368 52.1389C427.124 50.9168 428.099 49.9392 429.318 49.9392L508.535 49.6948C513.166 49.6948 517.797 52.1389 520.722 56.2939C551.677 98.577 564.108 137.194 568.74 159.435L573.615 182.899C574.346 186.32 572.152 189.009 568.74 189.009H549.484C546.315 189.009 542.903 187.542 540.465 185.098L500.979 147.215C496.591 143.06 490.741 140.616 485.135 140.616H437.849L427.368 52.1389Z" fill="#CD2827"/>
<path d="M386.418 156.991C388.124 164.812 390.074 172.878 391.78 181.432C392.999 187.298 398.118 191.453 403.968 191.698C480.991 194.386 544.852 194.63 590.432 191.209C590.432 189.987 590.432 189.009 590.432 187.787C590.432 178.011 588.726 167.257 585.801 156.502L386.418 156.991Z" fill="#822626"/>
<path opacity="0.75" d="M244.072 50.1836L323.289 49.9392C327.92 49.9392 332.064 52.3833 334.257 56.5383C356.438 98.8214 361.069 137.438 361.069 159.68V183.143C361.069 186.565 358.388 189.253 354.976 189.253H335.72C332.551 189.253 329.382 187.787 327.432 185.343L295.746 147.459C292.089 143.304 286.971 140.616 281.365 140.86H234.078L241.634 52.3833C241.634 51.1613 242.609 50.1836 244.072 50.1836Z" fill="#402B2B"/>
<path d="M207.753 241.313C207.753 241.313 214.091 241.313 223.841 241.313H262.596C291.602 241.313 298.427 255.733 316.22 291.173L372.525 290.928C372.525 290.928 372.525 286.773 372.525 279.685L587.508 279.196C588.483 261.354 590.433 225.182 590.433 190.964C544.853 194.386 480.748 194.386 403.968 191.453C398.118 191.209 393 187.054 391.781 181.188C390.075 172.633 388.125 164.323 386.418 156.747C375.937 112.02 364.481 80.0017 349.369 45.2954C348.151 42.6069 350.1 39.4296 353.025 39.4296L523.159 38.9407C514.872 27.9422 509.266 22.3208 498.785 22.3208L238.222 23.054C232.859 23.054 227.984 26.7202 226.522 31.8528C204.097 114.464 207.51 177.277 207.753 241.313ZM233.834 140.86L241.39 52.3833C241.39 51.1612 242.609 50.1836 243.828 50.1836L323.045 49.9392C327.676 49.9392 331.82 52.3833 334.013 56.5383C356.194 98.8214 360.825 137.438 360.825 159.68V183.143C360.825 186.565 358.144 189.253 354.732 189.253H335.476C332.307 189.253 329.138 187.787 327.188 185.343L295.502 147.459C291.845 143.304 286.727 140.616 281.121 140.86H233.834Z" fill="url(#paint0_linear)"/>
<path d="M217.26 234.958C217.26 238.624 220.185 241.313 223.841 241.313H262.596C291.602 241.313 298.427 255.733 316.22 291.173L372.525 290.928C372.525 290.928 372.525 286.773 372.525 279.685L372.282 180.699C372.282 131.573 363.507 100.532 340.351 51.4059C336.939 44.0735 329.383 39.4297 321.339 39.4297L237.491 39.6741C235.541 39.6741 234.078 40.8962 233.591 42.6071C217.016 105.665 217.016 208.317 217.26 234.958ZM233.835 140.86L241.391 52.3835C241.391 51.1614 242.609 50.1838 243.828 50.1838L323.045 49.9394C327.676 49.9394 331.82 52.3835 334.014 56.5385C356.194 98.8215 360.826 137.438 360.826 159.68V183.143C360.826 186.565 358.144 189.253 354.732 189.253H335.476C332.307 189.253 329.139 187.787 327.189 185.343L295.502 147.459C291.846 143.304 286.727 140.616 281.121 140.86H233.835Z" fill="url(#paint1_linear)"/>
<path d="M244.559 53.1165L323.289 52.8722C326.701 52.8722 329.87 54.8275 331.576 57.7604C354.488 101.51 358.144 140.371 358.144 159.435V182.899C358.144 184.61 356.682 186.076 354.976 186.076H335.72C333.282 186.076 331.089 185.098 329.626 183.388L297.939 145.504C293.796 140.616 287.702 137.683 281.121 137.683H237.247L244.559 53.1165ZM244.072 50.1836C242.853 50.1836 241.634 51.1613 241.634 52.3833L234.078 140.86H281.365C286.971 140.86 292.089 143.304 295.746 147.459L327.432 185.343C329.382 187.787 332.551 189.253 335.72 189.253H354.976C358.388 189.253 361.069 186.565 361.069 183.143V159.68C361.069 137.438 356.438 98.8214 334.257 56.5383C332.064 52.3833 327.92 49.9392 323.289 49.9392L244.072 50.1836Z" fill="#822626"/>
<path opacity="0.4" d="M372.281 233.003V279.685L457.348 279.441C456.373 267.22 454.18 255.489 450.523 244.49C449.061 240.091 445.405 236.914 440.774 236.18C422.005 233.981 398.118 233.003 372.281 233.003ZM544.365 279.441H586.533C587.264 269.176 587.995 252.556 588.727 233.736C578.489 234.225 568.983 235.203 560.452 236.425C555.821 237.158 552.165 240.335 550.703 244.735C547.29 255.489 545.34 267.22 544.365 279.441Z" fill="#CD2827"/>
<path d="M372.525 326.612L569.715 326.124C583.121 326.124 594.089 315.125 594.089 301.683V297.528C594.089 293.617 590.921 290.684 587.264 290.684L372.769 291.173L372.525 326.612Z" fill="#EE4D47"/>
<path d="M336.207 326.612H372.525V291.173H316.707L322.801 315.858C324.263 322.213 329.869 326.612 336.207 326.612Z" fill="#CD2827"/>
<path d="M249.434 197.319C257.721 197.564 273.808 199.274 273.808 205.14C273.808 211.006 259.671 212.961 248.215 212.961C236.759 212.961 235.54 206.607 234.565 203.918C233.834 201.23 233.103 197.075 249.434 197.319Z" fill="#CD2827"/>
<path d="M250.165 203.659C246.265 203.659 242.122 202.44 240.172 200.489C241.634 199.758 243.828 199.026 247.241 199.026C253.578 199.026 263.815 199.757 269.178 202.196C268.446 202.684 266.496 203.659 263.328 203.659C259.428 203.659 254.309 203.659 250.165 203.659Z" fill="#9B1616"/>
<path d="M266.496 208.317C267.959 208.317 268.69 208.561 268.934 208.805C264.546 210.756 256.503 211.488 252.603 211.488C246.997 211.488 243.097 211.488 241.878 210.268C242.853 209.537 245.047 208.317 247.24 208.317C250.165 208.561 264.546 208.317 266.496 208.317Z" fill="#9B1616"/>
<path d="M372.525 279.93C372.525 287.018 372.525 291.173 372.525 291.173L586.777 290.684C586.777 290.684 587.021 286.529 587.508 279.441L372.525 279.93Z" fill="#822626"/>
<g opacity="0.2">
<path d="M464.904 230.559V277.242L536.809 276.997V230.314C536.809 224.693 531.69 220.294 525.353 220.294H476.117C470.023 220.538 464.904 225.182 464.904 230.559Z" fill="#822626"/>
</g>
<path d="M560.939 275.53H576.051C579.951 275.53 583.364 272.353 583.364 268.198V260.621C583.364 256.71 580.195 253.289 576.051 253.289H560.939C557.039 253.289 553.627 256.466 553.627 260.621V268.198C553.627 272.353 557.039 275.53 560.939 275.53Z" fill="white"/>
<path d="M417.861 276.019H432.973C436.873 276.019 440.286 272.842 440.286 268.687V261.11C440.286 257.2 437.117 253.778 432.973 253.778H417.861C413.961 253.778 410.549 256.956 410.549 261.11V268.687C410.549 272.598 413.718 276.019 417.861 276.019Z" fill="white"/>
<path d="M320.363 146.236C320.363 147.214 321.094 147.947 321.825 148.191C331.332 149.169 341.325 149.169 351.562 147.947C352.781 147.703 353.512 146.969 353.512 145.747C354.244 126.195 354.244 107.13 353.512 89.044C353.512 87.822 352.537 87.0887 351.562 86.8443C341.081 85.6223 330.6 85.6223 319.632 86.8443C318.657 87.0887 317.926 88.0664 317.926 89.044C317.194 107.375 318.169 126.439 320.363 146.236Z" fill="#CD2827"/>
<path d="M358.143 163.59C358.874 163.59 359.605 163.102 359.849 162.368C360.337 161.391 359.849 160.169 358.874 159.68L342.3 151.614C339.862 150.392 338.156 147.704 338.156 145.015L337.912 83.6679C337.912 83.4235 338.156 83.4236 338.156 83.4236H348.393C349.612 83.4236 350.343 82.4459 350.343 81.4683C350.343 80.2462 349.368 79.513 348.393 79.513H338.156C335.718 79.513 333.769 81.4683 333.769 83.9124L334.012 145.26C334.012 149.659 336.45 153.57 340.35 155.525L356.924 163.59C357.656 163.59 357.899 163.59 358.143 163.59Z" fill="#822626"/>
<path d="M469.93 329.507L538.909 329.357L538.864 308.582L469.885 308.732L469.93 329.507Z" fill="white"/>
<path opacity="0.8" d="M348.9 46.0345C364.012 80.7408 375.225 112.759 385.949 157.486L585.333 156.997C573.877 114.958 544.871 70.2311 532.928 53.8556C529.028 48.4786 525.615 43.8348 522.69 39.6798L352.556 40.1687C349.631 40.4131 347.681 43.346 348.9 46.0345Z" fill="#8E6362"/>
<defs>
<linearGradient id="paint0_linear" x1="398.931" y1="-39.9114" x2="398.931" y2="298.534" gradientUnits="userSpaceOnUse">
<stop stop-color="#F4A984"/>
<stop offset="1" stop-color="#EE4D47"/>
</linearGradient>
<linearGradient id="paint1_linear" x1="294.868" y1="-288.203" x2="294.868" y2="298.066" gradientUnits="userSpaceOnUse">
<stop stop-color="#F4A984"/>
<stop offset="0.560769" stop-color="#EE4D47"/>
</linearGradient>
</defs>
</svg>
